<?xml version="1.0" encoding="utf-8"?>
<!-- Generator: Adobe Illustrator 26.0.3, SVG Export Plug-In . SVG Version: 6.00 Build 0)  -->
<svg version="1.1" id="Layer_1" xmlns="http://www.w3.org/2000/svg" xmlns:xlink="http://www.w3.org/1999/xlink" x="0px" y="0px"
	 viewBox="0 0 235 50" style="enable-background:new 0 0 235 50;" xml:space="preserve">
<style type="text/css">
	.st0{fill-rule:evenodd;clip-rule:evenodd;fill:#FFC337;stroke:#FFFFFF;stroke-width:3;stroke-miterlimit:10;}
	.st1{fill-rule:evenodd;clip-rule:evenodd;fill:#231F20;stroke:#231F20;stroke-width:0.414;stroke-miterlimit:10;}
	.st2{fill-rule:evenodd;clip-rule:evenodd;fill:#231F20;stroke:#231F20;stroke-width:0.207;stroke-miterlimit:10;}
	.st3{enable-background:new    ;}
	.st4{fill:#FFFFFF;}
</style>
<circle class="st0" cx="25.5" cy="25.3" r="22.9"/>
<g>
	<path class="st1" d="M22.9,39.1c0,0.2-0.2,0.4-0.5,0.4c-0.2,0-0.5-0.2-0.5-0.4s0.2-0.5,0.5-0.5S22.9,38.9,22.9,39.1L22.9,39.1z"/>
	<path class="st1" d="M24.4,39c0,0.3-0.2,0.5-0.5,0.5s-0.5-0.2-0.5-0.5c0-0.2,0.2-0.5,0.5-0.5C24.2,38.6,24.4,38.8,24.4,39L24.4,39z
		"/>
	<path class="st1" d="M25.9,39c0,0.3-0.2,0.5-0.5,0.5s-0.5-0.2-0.5-0.5c0-0.3,0.2-0.5,0.5-0.5S25.9,38.7,25.9,39L25.9,39z"/>
	<path class="st1" d="M27.4,38.9c0,0.2-0.2,0.5-0.5,0.5c-0.3,0-0.5-0.2-0.5-0.5c0-0.2,0.2-0.5,0.5-0.5
		C27.2,38.4,27.4,38.6,27.4,38.9L27.4,38.9z"/>
	<path class="st1" d="M28.8,38.8c0,0.3-0.2,0.5-0.5,0.5s-0.5-0.2-0.5-0.5c0-0.2,0.2-0.5,0.5-0.5S28.8,38.5,28.8,38.8L28.8,38.8z"/>
	<path class="st2" d="M29.9,36.1c0,0.6-0.5,1-1,1c-0.6,0-1-0.5-1-1s0.5-1,1-1C29.5,35.1,29.9,35.6,29.9,36.1L29.9,36.1z"/>
	<path class="st2" d="M30.6,33.6c0,0.6-0.5,1-1,1c-0.6,0-1-0.4-1-1s0.5-1,1-1S30.6,33,30.6,33.6L30.6,33.6z"/>
	<path class="st2" d="M31.7,31.2c0,0.6-0.5,1-1,1c-0.6,0-1-0.4-1-1s0.5-1,1-1C31.4,30.3,31.7,30.7,31.7,31.2L31.7,31.2z"/>
	<path class="st2" d="M33.5,28.9c0,0.6-0.5,1-1,1c-0.6,0-1-0.5-1-1s0.5-1,1-1S33.5,28.4,33.5,28.9L33.5,28.9z"/>
	<path class="st2" d="M34.7,26.5c0,0.6-0.5,1-1,1c-0.6,0-1-0.4-1-1c0-0.6,0.5-1,1-1C34.3,25.5,34.7,25.9,34.7,26.5L34.7,26.5z"/>
	<path class="st2" d="M35.5,23.7c0,0.6-0.5,1-1,1c-0.5,0-1-0.5-1-1c0-0.6,0.5-1,1-1C35,22.7,35.5,23.2,35.5,23.7L35.5,23.7z"/>
	<path class="st2" d="M35.2,21c0,0.6-0.5,1-1,1c-0.6,0-1-0.4-1-1s0.4-1,1-1S35.2,20.4,35.2,21L35.2,21z"/>
	<path class="st2" d="M34.5,18.5c0,0.6-0.5,1-1,1c-0.6,0-1-0.4-1-1s0.5-1,1-1C34,17.6,34.5,17.9,34.5,18.5L34.5,18.5z"/>
	<path class="st2" d="M33.1,16.5c0,0.6-0.5,1-1,1c-0.6,0-1-0.5-1-1c0-0.6,0.5-1,1-1C32.6,15.5,33.1,15.9,33.1,16.5L33.1,16.5z"/>
	<path class="st2" d="M31.2,14.8c0,0.6-0.5,1-1,1c-0.6,0-1-0.5-1-1c0-0.6,0.5-1,1-1S31.2,14.3,31.2,14.8L31.2,14.8z"/>
	<path class="st2" d="M28.8,13.8c0,0.6-0.5,1-1,1c-0.6,0-1-0.5-1-1c0-0.6,0.5-1,1-1S28.8,13.2,28.8,13.8L28.8,13.8z"/>
	<path class="st2" d="M26.4,13.5c0,0.6-0.5,1-1,1c-0.6,0-1-0.4-1-1s0.5-1,1-1S26.4,13,26.4,13.5L26.4,13.5z"/>
	<path class="st2" d="M24,13.9c0,0.6-0.5,1-1,1c-0.6,0-1-0.4-1-1s0.5-1,1-1C23.5,12.9,24,13.3,24,13.9L24,13.9z"/>
	<path class="st2" d="M21.6,14.9c0,0.6-0.5,1-1,1s-1-0.5-1-1c0-0.6,0.5-1,1-1S21.6,14.4,21.6,14.9L21.6,14.9z"/>
	<path class="st2" d="M19.7,16.6c0,0.6-0.5,1-1,1c-0.6,0-1-0.5-1-1c0-0.6,0.4-1,1-1C19.2,15.6,19.7,16,19.7,16.6L19.7,16.6z"/>
	<path class="st2" d="M18.3,18.6c0,0.6-0.5,1-1,1c-0.6,0-1-0.5-1-1c0-0.6,0.4-1,1-1C17.8,17.6,18.3,18,18.3,18.6L18.3,18.6z"/>
	<path class="st2" d="M17.5,21c0,0.6-0.4,1-1,1c-0.6,0-1-0.5-1-1c0-0.6,0.5-1,1-1C17.1,20.1,17.5,20.6,17.5,21L17.5,21z"/>
	<path class="st2" d="M17.4,23.9c0,0.6-0.5,1-1,1c-0.6,0-1-0.5-1-1c0-0.6,0.5-1,1-1C16.9,22.9,17.4,23.3,17.4,23.9L17.4,23.9z"/>
	<path class="st2" d="M18.2,26.4c0,0.6-0.5,1-1,1c-0.6,0-1-0.4-1-1s0.5-1,1-1S18.2,25.9,18.2,26.4L18.2,26.4z"/>
	<path class="st2" d="M19.4,28.9c0,0.6-0.5,1-1,1s-1-0.5-1-1c0-0.6,0.5-1,1-1S19.4,28.3,19.4,28.9L19.4,28.9z"/>
	<path class="st2" d="M21.2,31.2c0,0.6-0.5,1-1,1c-0.6,0-1-0.5-1-1c0-0.6,0.5-1,1-1S21.2,30.7,21.2,31.2L21.2,31.2z"/>
	<path class="st2" d="M22.3,33.5c0,0.6-0.5,1-1,1c-0.6,0-1-0.5-1-1c0-0.6,0.5-1,1-1C21.9,32.5,22.3,33,22.3,33.5L22.3,33.5z"/>
	<path class="st2" d="M23,36.1c0,0.6-0.5,1-1,1c-0.6,0-1-0.5-1-1s0.5-1,1-1S23,35.5,23,36.1L23,36.1z"/>
	<g>
		<path class="st1" d="M36.8,31.1c0,0.2-0.2,0.5-0.5,0.5s-0.5-0.2-0.5-0.5c0-0.3,0.2-0.5,0.5-0.5C36.6,30.7,36.8,30.9,36.8,31.1
			L36.8,31.1z"/>
		<path class="st1" d="M38.1,31.8c0,0.3-0.2,0.5-0.5,0.5c-0.2,0-0.5-0.2-0.5-0.5c0-0.2,0.2-0.5,0.5-0.5S38.1,31.5,38.1,31.8
			L38.1,31.8z"/>
		<path class="st1" d="M39.3,32.5c0,0.3-0.2,0.5-0.5,0.5c-0.2,0-0.5-0.2-0.5-0.5s0.2-0.5,0.5-0.5C39.1,32.1,39.3,32.3,39.3,32.5
			L39.3,32.5z"/>
		<path class="st1" d="M38.8,26.9c0.1,0.2,0,0.5-0.3,0.6c-0.2,0.1-0.5,0-0.6-0.3c-0.1-0.2,0-0.5,0.3-0.6
			C38.5,26.6,38.7,26.7,38.8,26.9L38.8,26.9z"/>
		<path class="st1" d="M40.3,27.2c0.1,0.2,0,0.5-0.3,0.6c-0.2,0.1-0.5,0-0.6-0.3c-0.1-0.2,0-0.5,0.3-0.6
			C40,26.8,40.2,26.9,40.3,27.2L40.3,27.2z"/>
		<path class="st1" d="M39.3,21.1c0.1,0.2,0,0.5-0.3,0.6c-0.2,0.1-0.5,0-0.6-0.3c-0.1-0.2,0-0.5,0.3-0.6C39,20.9,39.3,21,39.3,21.1
			L39.3,21.1z"/>
		<path class="st1" d="M40.8,21c0.1,0.2,0,0.5-0.3,0.6c-0.2,0.1-0.5,0-0.6-0.3c-0.1-0.2,0-0.5,0.3-0.6S40.7,20.7,40.8,21L40.8,21z"
			/>
		<path class="st1" d="M42.2,20.7c0.1,0.2,0,0.5-0.3,0.6c-0.2,0.1-0.5,0-0.6-0.3c-0.1-0.2,0-0.5,0.3-0.6
			C41.8,20.3,42.1,20.5,42.2,20.7L42.2,20.7z"/>
		<path class="st1" d="M37.9,16c0.1,0.2,0,0.5-0.3,0.6c-0.2,0.1-0.5,0-0.6-0.3c-0.1-0.2,0-0.5,0.3-0.6C37.6,15.6,37.8,15.7,37.9,16
			L37.9,16z"/>
		<path class="st1" d="M39.1,15.2c0.1,0.2,0,0.5-0.3,0.6c-0.2,0.1-0.5,0-0.6-0.3c-0.1-0.2,0-0.5,0.3-0.6
			C38.8,14.9,39.1,15,39.1,15.2L39.1,15.2z"/>
		<path class="st1" d="M40.4,14.5c0.1,0.2,0,0.5-0.3,0.6c-0.2,0.1-0.5,0-0.6-0.3c-0.1-0.2,0-0.5,0.3-0.6
			C40.1,14.2,40.3,14.2,40.4,14.5L40.4,14.5z"/>
		<path class="st1" d="M34.9,12c0.1,0.2,0,0.5-0.3,0.6c-0.2,0.1-0.5,0-0.6-0.3c-0.1-0.2,0-0.5,0.3-0.6C34.7,11.6,34.8,11.8,34.9,12
			L34.9,12z"/>
		<path class="st1" d="M35.9,10.9c0.1,0.2,0,0.5-0.3,0.6c-0.2,0.1-0.5,0-0.6-0.3c-0.1-0.2,0-0.5,0.3-0.6
			C35.6,10.6,35.8,10.8,35.9,10.9L35.9,10.9z"/>
		<path class="st1" d="M36.9,9.8c0.1,0.2,0,0.5-0.3,0.6c-0.2,0.1-0.5,0-0.6-0.3c-0.1-0.2,0-0.5,0.3-0.6C36.5,9.5,36.8,9.6,36.9,9.8
			L36.9,9.8z"/>
		<path class="st1" d="M30.7,9.3c0.1,0.2,0,0.5-0.3,0.6c-0.2,0.1-0.5,0-0.6-0.3c-0.1-0.2,0-0.5,0.3-0.6C30.4,9,30.6,9.1,30.7,9.3
			L30.7,9.3z"/>
		<path class="st1" d="M31.3,7.9c0.1,0.2,0,0.5-0.3,0.6c-0.2,0.1-0.5,0-0.6-0.3c-0.1-0.2,0-0.5,0.3-0.6C30.9,7.5,31.2,7.7,31.3,7.9
			L31.3,7.9z"/>
		<path class="st1" d="M31.7,6.6c0.1,0.2,0,0.5-0.3,0.6c-0.2,0.1-0.5,0-0.6-0.3c-0.1-0.2,0-0.5,0.3-0.6C31.4,6.3,31.6,6.4,31.7,6.6
			L31.7,6.6z"/>
		<path class="st1" d="M25.5,8.7c0.1,0.2,0,0.5-0.3,0.6c-0.2,0.1-0.5,0-0.6-0.3c-0.1-0.2,0-0.5,0.3-0.6C25.2,8.4,25.5,8.5,25.5,8.7
			L25.5,8.7z"/>
		<path class="st1" d="M25.5,7.3c0.1,0.2,0,0.5-0.3,0.6c-0.2,0.1-0.5,0-0.6-0.3c-0.1-0.2,0-0.5,0.3-0.6C25.2,7,25.5,7.1,25.5,7.3
			L25.5,7.3z"/>
		<path class="st1" d="M25.5,5.9c0.1,0.2,0,0.5-0.3,0.6c-0.2,0.1-0.5,0-0.6-0.3c-0.1-0.2,0-0.5,0.3-0.6S25.5,5.7,25.5,5.9L25.5,5.9z
			"/>
		<path class="st1" d="M20.1,7c0.1,0.2,0,0.5-0.3,0.6c-0.2,0.1-0.5,0-0.6-0.3c-0.1-0.2,0-0.5,0.3-0.6C19.8,6.6,20.1,6.7,20.1,7
			L20.1,7z"/>
		<path class="st1" d="M20.7,8.3c0.1,0.2,0,0.5-0.3,0.6c-0.2,0.1-0.5,0-0.6-0.3c-0.1-0.2,0-0.5,0.3-0.6C20.3,7.9,20.6,8,20.7,8.3
			L20.7,8.3z"/>
		<path class="st1" d="M21.2,9.7c0.1,0.2,0,0.5-0.3,0.6c-0.2,0.1-0.5,0-0.6-0.3c-0.1-0.2,0-0.5,0.3-0.6C20.8,9.3,21.1,9.4,21.2,9.7
			L21.2,9.7z"/>
		<path class="st1" d="M15,10.2c0.1,0.2,0,0.5-0.3,0.6c-0.2,0.1-0.5,0-0.6-0.3c-0.1-0.2,0-0.5,0.3-0.6C14.6,9.8,14.9,10,15,10.2
			L15,10.2z"/>
		<path class="st1" d="M15.9,11.2c0.1,0.2,0,0.5-0.3,0.6c-0.2,0.1-0.5,0-0.6-0.3c-0.1-0.2,0-0.5,0.3-0.6
			C15.6,10.9,15.8,11,15.9,11.2L15.9,11.2z"/>
		<path class="st1" d="M16.9,12.4c0.1,0.2,0,0.5-0.3,0.6c-0.2,0.1-0.5,0-0.6-0.3c-0.1-0.2,0-0.5,0.3-0.6
			C16.5,12,16.8,12.2,16.9,12.4L16.9,12.4z"/>
		<path class="st1" d="M14,16.3c0.1,0.2,0,0.5-0.3,0.6c-0.2,0.1-0.5,0-0.6-0.3c-0.1-0.2,0-0.5,0.3-0.6C13.6,16,13.9,16.1,14,16.3
			L14,16.3z"/>
		<path class="st1" d="M12.5,21.5c0.1,0.2,0,0.5-0.3,0.6c-0.2,0.1-0.5,0-0.6-0.3c-0.1-0.2,0-0.5,0.3-0.6
			C12.1,21.1,12.4,21.2,12.5,21.5L12.5,21.5z"/>
		<path class="st1" d="M13,27.3c0.1,0.2,0,0.5-0.3,0.6c-0.2,0.1-0.5,0-0.6-0.3c-0.1-0.2,0-0.5,0.3-0.6C12.7,26.9,12.9,27,13,27.3
			L13,27.3z"/>
		<path class="st1" d="M15,31.2c0.1,0.2,0,0.5-0.3,0.6c-0.2,0.1-0.5,0-0.6-0.3c-0.1-0.2,0-0.5,0.3-0.6C14.7,31,14.9,31.1,15,31.2
			L15,31.2z"/>
		<path class="st1" d="M13.8,32c0.1,0.2,0,0.5-0.3,0.6c-0.2,0.1-0.5,0-0.6-0.3c-0.1-0.2,0-0.5,0.3-0.6C13.5,31.6,13.7,31.8,13.8,32
			L13.8,32z"/>
		<path class="st1" d="M12.5,32.7c0.1,0.2,0,0.5-0.3,0.6c-0.2,0.1-0.5,0-0.6-0.3c-0.1-0.2,0-0.5,0.3-0.6
			C12.2,32.4,12.4,32.5,12.5,32.7L12.5,32.7z"/>
		<path class="st1" d="M11.5,27.5c0.1,0.2,0,0.5-0.3,0.6c-0.2,0.1-0.5,0-0.6-0.3c-0.1-0.2,0-0.5,0.3-0.6
			C11.2,27.2,11.4,27.3,11.5,27.5L11.5,27.5z"/>
		<path class="st1" d="M10.1,27.8c0.1,0.2,0,0.5-0.3,0.6c-0.2,0.1-0.5,0-0.6-0.3c-0.1-0.2,0-0.5,0.3-0.6S10.1,27.5,10.1,27.8
			L10.1,27.8z"/>
		<path class="st1" d="M11.1,21.2c0.1,0.2,0,0.5-0.3,0.6c-0.2,0.1-0.5,0-0.6-0.3c-0.1-0.2,0-0.5,0.3-0.6S11,21,11.1,21.2L11.1,21.2z
			"/>
		<path class="st1" d="M9.6,21c0.1,0.2,0,0.5-0.3,0.6c-0.2,0.1-0.5,0-0.6-0.3c-0.1-0.2,0-0.5,0.3-0.6C9.3,20.7,9.6,20.8,9.6,21
			L9.6,21z"/>
		<path class="st1" d="M12.7,15.6c0.1,0.2,0,0.5-0.3,0.6c-0.2,0.1-0.5,0-0.6-0.3c-0.1-0.2,0-0.5,0.3-0.6
			C12.3,15.2,12.6,15.4,12.7,15.6L12.7,15.6z"/>
		<path class="st1" d="M11.4,14.8c0.1,0.2,0,0.5-0.3,0.6c-0.2,0.1-0.5,0-0.6-0.3c-0.1-0.2,0-0.5,0.3-0.6
			C11.1,14.5,11.3,14.6,11.4,14.8L11.4,14.8z"/>
		<path class="st1" d="M41.7,27.4c0.1,0.2,0,0.5-0.3,0.6c-0.2,0.1-0.5,0-0.6-0.3c-0.1-0.3,0-0.5,0.3-0.6
			C41.4,27.1,41.6,27.2,41.7,27.4L41.7,27.4z"/>
	</g>
	<path class="st1" d="M22.7,40.9c0,0.2-0.2,0.5-0.5,0.5c-0.2,0-0.5-0.2-0.5-0.5c0-0.3,0.2-0.5,0.5-0.5
		C22.5,40.4,22.7,40.6,22.7,40.9L22.7,40.9z"/>
	<path class="st1" d="M24.2,40.8c0,0.3-0.2,0.5-0.5,0.5c-0.2,0-0.5-0.2-0.5-0.5c0-0.2,0.2-0.4,0.5-0.4C24,40.4,24.2,40.6,24.2,40.8
		L24.2,40.8z"/>
	<path class="st1" d="M25.6,40.7c0,0.2-0.2,0.5-0.5,0.5s-0.5-0.2-0.5-0.5c0-0.3,0.2-0.5,0.5-0.5C25.4,40.3,25.6,40.5,25.6,40.7
		L25.6,40.7z"/>
	<path class="st1" d="M27.1,40.6c0,0.3-0.2,0.5-0.5,0.5s-0.5-0.2-0.5-0.5c0-0.2,0.2-0.5,0.5-0.5C26.9,40.2,27.1,40.4,27.1,40.6
		L27.1,40.6z"/>
	<path class="st1" d="M28.5,40.6c0,0.2-0.2,0.5-0.5,0.5s-0.5-0.2-0.5-0.5c0-0.3,0.2-0.5,0.5-0.5C28.3,40.1,28.5,40.3,28.5,40.6
		L28.5,40.6z"/>
	<path class="st1" d="M23.1,42.6c0,0.2-0.2,0.5-0.5,0.5s-0.5-0.2-0.5-0.5c0-0.3,0.2-0.5,0.5-0.5S23.1,42.3,23.1,42.6L23.1,42.6z"/>
	<path class="st1" d="M24.6,42.5c0,0.2-0.2,0.5-0.4,0.5c-0.3,0-0.5-0.2-0.5-0.5c0-0.3,0.2-0.5,0.5-0.5C24.4,42,24.6,42.2,24.6,42.5
		L24.6,42.5z"/>
	<path class="st1" d="M26,42.4c0,0.3-0.2,0.5-0.5,0.5S25,42.7,25,42.4c0-0.2,0.2-0.5,0.5-0.5S26,42.2,26,42.4L26,42.4z"/>
	<path class="st1" d="M27.6,42.3c0,0.3-0.2,0.5-0.5,0.5c-0.2,0-0.5-0.2-0.5-0.5c0-0.2,0.2-0.5,0.5-0.5
		C27.3,41.9,27.6,42.1,27.6,42.3L27.6,42.3z"/>
	<path class="st1" d="M29,42.2c0,0.3-0.2,0.5-0.5,0.5c-0.2,0-0.5-0.2-0.5-0.5c0-0.3,0.2-0.5,0.5-0.5C28.8,41.8,29,42,29,42.2
		L29,42.2z"/>
	<path class="st1" d="M22.9,44.4c0,0.2-0.2,0.5-0.5,0.5c-0.2,0-0.5-0.2-0.5-0.5c0-0.2,0.2-0.5,0.5-0.5S22.9,44.1,22.9,44.4
		L22.9,44.4z"/>
	<path class="st1" d="M24.4,44.3c0,0.2-0.2,0.5-0.5,0.5c-0.2,0-0.5-0.2-0.5-0.5s0.2-0.5,0.5-0.5S24.4,44,24.4,44.3L24.4,44.3z"/>
	<path class="st1" d="M25.8,44.2c0,0.2-0.2,0.5-0.5,0.5s-0.5-0.2-0.5-0.5c0-0.3,0.2-0.5,0.5-0.5C25.6,43.8,25.8,44,25.8,44.2
		L25.8,44.2z"/>
	<path class="st1" d="M27.3,44.1c0,0.3-0.2,0.5-0.5,0.5c-0.2,0-0.5-0.2-0.5-0.5c0-0.2,0.2-0.5,0.5-0.5
		C27.1,43.7,27.3,43.9,27.3,44.1L27.3,44.1z"/>
	<path class="st1" d="M28.8,44c0,0.3-0.2,0.5-0.5,0.5c-0.2,0-0.5-0.2-0.5-0.5c0-0.2,0.2-0.5,0.5-0.5C28.6,43.6,28.8,43.8,28.8,44
		L28.8,44z"/>
</g>
<g class="st3">
	<g>
		<path class="st4" d="M86,23.8c0,2.6-0.4,5-1.2,7.2s-2,4-3.4,5.6c-1.4,1.5-3,2.6-4.7,3.3c-1.7,0.8-3.6,1-5.5,1
			c-1.9,0-3.8-0.4-5.5-1c-1.7-0.7-3.2-1.7-4.6-3.1c-1.5-1.5-2.7-3.4-3.5-5.6s-1.3-4.7-1.3-7.3c0-2.5,0.4-4.8,1-6.9
			c0.7-2.1,1.8-3.9,3.2-5.5c1.3-1.5,2.9-2.7,4.7-3.5c1.8-0.8,3.8-1.2,5.9-1.2c2.1,0,4,0.4,5.7,1.1c1.7,0.8,3.3,1.8,4.7,3.3
			c1.5,1.6,2.7,3.5,3.4,5.7C85.6,19,86,21.3,86,23.8z M78.8,24.1c0-1.6-0.3-3.2-0.8-4.9c-0.5-1.6-1.2-3-2.2-4
			c-0.7-0.7-1.3-1.2-2.1-1.6C73,13.2,72.1,13,71.1,13c-1,0-1.9,0.2-2.7,0.6c-0.8,0.4-1.6,1-2.3,1.7c-0.9,1-1.5,2.3-2,3.7
			c-0.5,1.5-0.8,3.1-0.8,4.7c0,1.7,0.3,3.3,0.8,4.9c0.5,1.4,1.2,2.7,2.1,3.7c0.7,0.7,1.3,1.2,2.2,1.6c0.9,0.4,1.7,0.6,2.7,0.6
			c1,0,1.8-0.2,2.7-0.6c0.9-0.4,1.5-1,2.2-1.7c0.9-1,1.5-2.1,2.1-3.6C78.6,27.2,78.8,25.7,78.8,24.1z"/>
		<path class="st4" d="M115.9,31.2c0,1.8-0.5,3.4-1.4,4.9c-1,1.4-2.4,2.5-4.2,3.2c-1.4,0.6-3.1,1-5.1,1.2s-4,0.4-6.4,0.4
			c-1.2,0-2.6,0-3.9-0.1c-1.3-0.1-2.4-0.1-3.1-0.1c0-2.7,0.1-5.3,0.1-8.1s0-5.7,0-8.9c0-3.4,0-6.9,0-10.1c0-3.3,0-5.1,0-5.2
			c0.3,0,1,0,2.4-0.1c1.3-0.1,2.8-0.1,4.3-0.1c2.3,0,4.2,0.1,5.7,0.2c1.5,0.2,2.9,0.5,4.2,0.9c1.5,0.6,2.8,1.4,3.7,2.6
			s1.3,2.6,1.3,4.3c0,1.5-0.4,3-1.1,4.2c-0.8,1.2-1.8,2.2-3.1,2.8v0.2c0.9,0.1,1.6,0.4,2.3,0.7c0.7,0.3,1.3,0.8,1.9,1.3
			c0.9,0.8,1.4,1.6,1.8,2.6C115.6,28.7,115.9,29.9,115.9,31.2z M108.6,30.3c0-0.8-0.1-1.4-0.4-1.9c-0.3-0.6-0.6-1-1-1.5
			c-0.4-0.4-0.9-0.7-1.5-1c-0.7-0.3-1.3-0.4-2.1-0.4c-0.6,0-1,0-1.4,0s-0.6,0-0.7,0l-0.6-3.1c0.8,0,1.4-0.2,2.1-0.4
			c0.7-0.2,1.2-0.5,1.6-0.9c0.5-0.4,0.9-0.9,1.1-1.5c0.3-0.7,0.5-1.3,0.5-2.2c0-0.8-0.2-1.4-0.5-2c-0.3-0.6-0.8-1.1-1.3-1.4
			c-0.5-0.3-1-0.5-1.7-0.6c-0.7-0.1-1.3-0.2-2.1-0.2c-0.4,0-0.8,0-1.1,0c-0.4,0-0.7,0-0.9,0c0,1.6,0,3.4-0.1,5.4c0,2,0,3.7,0,5.2
			c0,1.6,0,3.8,0,6.6c0,2.8,0,4.3,0,4.5c0.2,0,0.5,0,0.9,0s0.9,0,1.3,0c1.1,0,2.2-0.1,3.1-0.2c1-0.1,1.9-0.4,2.6-0.9
			c0.7-0.4,1.1-1,1.5-1.6C108.4,32,108.6,31.2,108.6,30.3z"/>
		<path class="st4" d="M128.5,41h-7c0-1.3,0-3.3,0.1-5.9c0-2.6,0-6.1,0-10.6c0-1.9,0-4.2,0-7.2c0-2.9,0-5.8-0.1-8.8h7
			c0,2.2,0,4.8-0.1,7.6c0,2.9,0,5.4,0,7.7c0,4.6,0,8.1,0,10.6C128.4,37,128.5,39.1,128.5,41z"/>
		<path class="st4" d="M155.5,41c-0.4,0-1.8,0-4.4,0s-4.6,0-6.1,0c-1.7,0-3.6,0-5.8,0s-3.6,0-4.1,0l-1.7-4.5
			c1.1-0.6,2.2-1.1,3.3-1.8c1.1-0.7,2.2-1.3,3.3-2.1c1.6-1.1,2.9-2.2,3.6-3.1c0.8-1,1.2-2.2,1.2-3.4c0-0.9-0.2-1.6-0.6-2.2
			c-0.4-0.6-1-1-1.7-1.3c-0.6-0.3-1.3-0.5-2.2-0.6s-1.7-0.2-2.7-0.2c-0.6,0-1.1,0-1.7,0.1c-0.6,0-1,0.1-1.4,0.1l0.7-5.7
			c0.5,0,1,0,1.6-0.1c0.7,0,1.2-0.1,1.8-0.1c1.6,0,3.1,0.1,4.5,0.3c1.3,0.2,2.6,0.6,3.8,1.1c1.7,0.8,3,1.7,3.7,3
			c0.8,1.2,1.2,2.7,1.2,4.4c0,1.1-0.3,2.3-0.8,3.4c-0.5,1.1-1.1,2.1-2,3c-0.8,0.8-1.6,1.6-2.8,2.4c-1.1,0.8-2.2,1.4-3.1,2v0.2
			c1-0.1,1.8-0.1,2.7-0.1c0.9,0,1.6-0.1,2.3-0.1c1.5,0,3.1,0,4.6-0.1c1.5,0,2.5,0,2.8,0L155.5,41L155.5,41z"/>
		<path class="st4" d="M181.8,28c0,1.9-0.3,3.7-1,5.3c-0.7,1.7-1.5,3.1-2.8,4.3c-1,1-2.3,1.9-3.8,2.5c-1.4,0.6-3.1,0.9-4.8,0.9
			c-1.6,0-3.1-0.3-4.7-0.9c-1.4-0.6-2.8-1.4-3.8-2.5c-1.2-1.2-2.1-2.7-2.8-4.3c-0.7-1.6-1-3.4-1-5.4c0-1.9,0.3-3.6,0.9-5.2
			c0.6-1.5,1.4-3,2.6-4.2c1-1.1,2.4-2.1,3.9-2.8c1.5-0.7,3.1-1,4.9-1c1.7,0,3.3,0.3,4.9,0.9c1.4,0.6,2.8,1.4,3.8,2.6
			c1.1,1.2,2,2.7,2.7,4.2C181.5,24.3,181.8,26.1,181.8,28z M175.3,28.2c0-1.1-0.2-2.3-0.5-3.3c-0.3-1-0.9-1.9-1.4-2.7
			c-0.5-0.6-1-1-1.6-1.2c-0.7-0.3-1.3-0.5-2.1-0.5c-0.9,0-1.6,0.2-2.2,0.5c-0.6,0.3-1.1,0.8-1.6,1.2c-0.6,0.7-1,1.4-1.3,2.6
			c-0.3,1-0.5,2.1-0.5,3.2c0,1.2,0.2,2.3,0.5,3.3c0.3,1,0.9,1.9,1.5,2.7c0.5,0.5,1,1,1.6,1.2c0.6,0.3,1.3,0.5,2.1,0.5
			c0.8,0,1.4-0.2,2.1-0.5c0.7-0.3,1.1-0.7,1.6-1.1c0.7-0.7,1.1-1.5,1.4-2.6C175.2,30.4,175.3,29.3,175.3,28.2z"/>
		<path class="st4" d="M206.7,41c-0.4,0-1.8,0-4.4,0c-2.6,0-4.6,0-6.1,0c-1.7,0-3.6,0-5.8,0c-2.2,0-3.6,0-4.1,0l-1.7-4.5
			c1.1-0.6,2.2-1.1,3.3-1.8c1.1-0.7,2.2-1.3,3.3-2.1c1.6-1.1,2.9-2.2,3.6-3.1c0.8-1,1.2-2.2,1.2-3.4c0-0.9-0.2-1.6-0.6-2.2
			c-0.4-0.6-1-1-1.7-1.3c-0.6-0.3-1.3-0.5-2.2-0.6c-0.9-0.1-1.7-0.2-2.7-0.2c-0.6,0-1.1,0-1.7,0.1c-0.6,0-1,0.1-1.4,0.1l0.7-5.7
			c0.5,0,1,0,1.6-0.1c0.7,0,1.2-0.1,1.8-0.1c1.6,0,3.1,0.1,4.5,0.3c1.3,0.2,2.6,0.6,3.8,1.1c1.7,0.8,3,1.7,3.7,3
			c0.8,1.2,1.2,2.7,1.2,4.4c0,1.1-0.3,2.3-0.8,3.4c-0.5,1.1-1.1,2.1-2,3c-0.8,0.8-1.6,1.6-2.8,2.4c-1.1,0.8-2.2,1.4-3.1,2v0.2
			c1-0.1,1.8-0.1,2.7-0.1s1.6-0.1,2.3-0.1c1.5,0,3.1,0,4.6-0.1c1.5,0,2.5,0,2.8,0L206.7,41L206.7,41z"/>
		<path class="st4" d="M232.9,41c-0.4,0-1.8,0-4.4,0s-4.6,0-6.1,0c-1.7,0-3.6,0-5.8,0c-2.2,0-3.6,0-4.1,0l-1.7-4.5
			c1.1-0.6,2.2-1.1,3.3-1.8c1.1-0.7,2.2-1.3,3.3-2.1c1.6-1.1,2.9-2.2,3.6-3.1c0.8-1,1.2-2.2,1.2-3.4c0-0.9-0.2-1.6-0.6-2.2
			c-0.4-0.6-1-1-1.7-1.3c-0.6-0.3-1.3-0.5-2.2-0.6s-1.7-0.2-2.7-0.2c-0.6,0-1.1,0-1.7,0.1c-0.6,0-1,0.1-1.4,0.1l0.7-5.7
			c0.5,0,1,0,1.6-0.1c0.7,0,1.2-0.1,1.8-0.1c1.6,0,3.1,0.1,4.5,0.3c1.3,0.2,2.6,0.6,3.8,1.1c1.7,0.8,3,1.7,3.7,3
			c0.8,1.2,1.2,2.7,1.2,4.4c0,1.1-0.3,2.3-0.8,3.4c-0.5,1.1-1.1,2.1-2,3c-0.8,0.8-1.6,1.6-2.8,2.4c-1.1,0.8-2.2,1.4-3.1,2v0.2
			c1-0.1,1.8-0.1,2.7-0.1s1.6-0.1,2.3-0.1c1.5,0,3.1,0,4.6-0.1c1.5,0,2.5,0,2.8,0L232.9,41L232.9,41z"/>
	</g>
</g>
</svg>
